<svg width="178" height="73" viewBox="0 0 178 73" fill="none" xmlns="http://www.w3.org/2000/svg">
<path d="M66.54 36.0417C38.9816 36.4758 0.443681 56.8769 0.00608843 52.5363C-0.431505 48.1956 22.8403 51.6681 30.714 39.5143C35.2443 32.5214 33.7301 21.5242 40.5566 17.3769C59.8474 5.657 51.9736 -0.333489 55.5168 0.44825C81.1063 6.09405 83.6207 2.65566 100.398 0.0141729C103.941 -0.543703 116.145 15.6406 152.365 19.9813C155.657 20.3759 150.397 26.4921 154.334 29.0965C160.239 33.0029 172.863 28.9468 175.199 32.4193C178.426 37.2152 178.742 45.0073 176.774 48.4798C170.988 58.6871 174.412 64.2561 172.05 65.9924C169.688 67.7286 154.727 72.5034 154.727 72.5034C140.554 73.8056 133.862 72.9374 130.712 65.1242C127.562 57.311 125.2 52.5362 118.114 45.5912C111.027 38.6462 84.6104 35.7571 66.54 36.0417Z" fill="#F2EDEA"/>
</svg>
