<svg width="131" height="77" viewBox="0 0 131 77" fill="none" xmlns="http://www.w3.org/2000/svg">
<path d="M14.003 59.009C7.83075 59.7655 1.02381 59.3909 0.237275 57.7076C-0.324811 56.5046 0.23726 50.7665 0.630561 49.0313C1.02386 47.2961 6.07297 47.3239 9.28324 45.127C13.4618 42.2675 15.3289 39.3071 19.5093 36.4508C28.7643 30.1273 33.1011 32.5049 43.1077 27.7746C56.8734 21.2672 54.9927 16.9904 66.9798 9.12055C83.4987 -1.72463 116.936 -2.14607 119.683 3.91494C120.863 6.51775 120.295 17.4862 122.556 28.6422C125.11 41.2433 132.233 56.0813 130.815 57.7075C120.983 68.9866 119.803 78.5305 117.836 76.7952L117.835 76.7942C115.868 75.0584 111.147 70.8928 95.4843 70.8928C87.4769 70.8928 86.656 72.5309 80.0786 69.8543C76.4686 68.3853 71.7142 64.3738 68.2794 62.4795C58.84 57.2738 55.63 56.1011 45.0742 55.5385C38.6318 55.1952 34.1663 55.9506 27.7687 56.84C24.2289 57.332 17.5427 58.5752 14.003 59.009Z" fill="#F2EDEA"/>
</svg>
