<svg width="256" height="176" viewBox="0 0 256 176" fill="none" xmlns="http://www.w3.org/2000/svg">
<path d="M57.8505 62.4438C46.1089 82.8555 6.9699 76.7755 1.49044 99.3586C-3.98901 121.942 5.40437 132.365 33.5844 153.211C33.5844 153.211 53.9366 170.148 71.5492 174.057C84.0503 176.831 97.3809 173.371 106.383 175.794C115.385 178.217 118.671 158.677 118.999 148.367C119.35 137.298 112.736 132.732 113.519 124.857C114.318 116.814 122.521 116.605 129.175 116.087C149.232 114.523 150.994 142.776 170.662 147.414C180.091 149.638 185.426 148.87 194.928 147.064C211.896 143.839 218.843 120.462 227.805 114.927C230.585 113.21 239.938 111.887 244.635 114.314C249.331 116.742 256.37 112.876 255.985 107.109C255.202 95.3836 231.81 100.528 183.187 63.6801C134.563 26.8319 126.344 -10.9512 89.9445 2.94593C53.5446 16.8431 69.5922 42.0321 57.8505 62.4438Z" fill="#F2EDEA"/>
</svg>
