<svg width="143" height="89" viewBox="0 0 143 89" fill="none" xmlns="http://www.w3.org/2000/svg">
<g filter="url(#filter0_d_16_33)">
<path d="M16.003 61.009C9.83075 61.7655 3.02381 61.3909 2.23727 59.7076C1.67519 58.5046 2.23726 52.7665 2.63056 51.0313C3.02386 49.2961 8.07297 49.3239 11.2832 47.127C15.4618 44.2675 17.3289 41.3071 21.5093 38.4508C30.7643 32.1273 35.1011 34.5049 45.1077 29.7746C58.8734 23.2672 56.9927 18.9904 68.9798 11.1206C85.4987 0.275374 118.936 -0.14607 121.683 5.91494C122.863 8.51775 122.295 19.4862 124.556 30.6422C127.11 43.2433 134.233 58.0813 132.815 59.7075C122.983 70.9866 121.803 80.5305 119.836 78.7952L119.835 78.7942C117.868 77.0584 113.147 72.8928 97.4843 72.8928C89.4769 72.8928 88.656 74.5309 82.0786 71.8543C78.4686 70.3853 73.7142 66.3738 70.2794 64.4795C60.84 59.2738 57.63 58.1011 47.0742 57.5385C40.6318 57.1952 36.1663 57.9506 29.7687 58.84C26.2289 59.332 19.5427 60.5752 16.003 61.009Z" fill="#F2EDEA"/>
</g>
<defs>
<filter id="filter0_d_16_33" x="0.9" y="0.9" width="141.2" height="87.2" filterUnits="userSpaceOnUse" color-interpolation-filters="sRGB">
<feFlood flood-opacity="0" result="BackgroundImageFix"/>
<feColorMatrix in="SourceAlpha" type="matrix" values="0 0 0 0 0 0 0 0 0 0 0 0 0 0 0 0 0 0 127 0" result="hardAlpha"/>
<feOffset dx="4" dy="4"/>
<feGaussianBlur stdDeviation="2.55"/>
<feComposite in2="hardAlpha" operator="out"/>
<feColorMatrix type="matrix" values="0 0 0 0 0 0 0 0 0 0 0 0 0 0 0 0 0 0 0.25 0"/>
<feBlend mode="normal" in2="BackgroundImageFix" result="effect1_dropShadow_16_33"/>
<feBlend mode="normal" in="SourceGraphic" in2="effect1_dropShadow_16_33" result="shape"/>
</filter>
</defs>
</svg>
