<svg width="190" height="85" viewBox="0 0 190 85" fill="none" xmlns="http://www.w3.org/2000/svg">
<g filter="url(#filter0_d_16_24)">
<path d="M68.54 38.0417C40.9816 38.4758 2.44368 58.8769 2.00609 54.5363C1.5685 50.1956 24.8403 53.6681 32.714 41.5143C37.2443 34.5214 35.7301 23.5242 42.5566 19.3769C61.8474 7.657 53.9736 1.66651 57.5168 2.44825C83.1063 8.09405 85.6207 4.65566 102.398 2.01417C105.941 1.4563 118.145 17.6406 154.365 21.9813C157.657 22.3759 152.397 28.4921 156.334 31.0965C162.239 35.0029 174.863 30.9468 177.199 34.4193C180.426 39.2152 180.742 47.0073 178.774 50.4798C172.988 60.6871 176.412 66.2561 174.05 67.9924C171.688 69.7286 156.727 74.5034 156.727 74.5034C142.554 75.8056 135.862 74.9374 132.712 67.1242C129.562 59.311 127.2 54.5362 120.114 47.5912C113.027 40.6462 86.6104 37.7571 68.54 38.0417Z" fill="#F2EDEA"/>
</g>
<defs>
<filter id="filter0_d_16_24" x="0.9" y="0.900122" width="188.2" height="83.1999" filterUnits="userSpaceOnUse" color-interpolation-filters="sRGB">
<feFlood flood-opacity="0" result="BackgroundImageFix"/>
<feColorMatrix in="SourceAlpha" type="matrix" values="0 0 0 0 0 0 0 0 0 0 0 0 0 0 0 0 0 0 127 0" result="hardAlpha"/>
<feOffset dx="4" dy="4"/>
<feGaussianBlur stdDeviation="2.55"/>
<feComposite in2="hardAlpha" operator="out"/>
<feColorMatrix type="matrix" values="0 0 0 0 0 0 0 0 0 0 0 0 0 0 0 0 0 0 0.25 0"/>
<feBlend mode="normal" in2="BackgroundImageFix" result="effect1_dropShadow_16_24"/>
<feBlend mode="normal" in="SourceGraphic" in2="effect1_dropShadow_16_24" result="shape"/>
</filter>
</defs>
</svg>
