<svg width="268" height="188" viewBox="0 0 268 188" fill="none" xmlns="http://www.w3.org/2000/svg">
<g filter="url(#filter0_d_16_21)">
<path d="M59.8505 64.4438C48.1089 84.8555 8.9699 78.7755 3.49044 101.359C-1.98901 123.942 7.40437 134.365 35.5844 155.211C35.5844 155.211 55.9366 172.148 73.5492 176.057C86.0503 178.831 99.3809 175.371 108.383 177.794C117.385 180.217 120.671 160.677 120.999 150.367C121.35 139.298 114.736 134.732 115.519 126.857C116.318 118.814 124.521 118.605 131.175 118.087C151.232 116.523 152.994 144.776 172.662 149.414C182.091 151.638 187.426 150.87 196.928 149.064C213.896 145.839 220.843 122.462 229.805 116.927C232.585 115.21 241.938 113.887 246.635 116.314C251.331 118.742 258.37 114.876 257.985 109.109C257.202 97.3836 233.81 102.528 185.187 65.6801C136.563 28.8319 128.344 -8.95121 91.9445 4.94593C55.5446 18.8431 71.5922 44.0321 59.8505 64.4438Z" fill="#588D89"/>
</g>
<defs>
<filter id="filter0_d_16_21" x="0.9" y="0.9" width="266.2" height="186.2" filterUnits="userSpaceOnUse" color-interpolation-filters="sRGB">
<feFlood flood-opacity="0" result="BackgroundImageFix"/>
<feColorMatrix in="SourceAlpha" type="matrix" values="0 0 0 0 0 0 0 0 0 0 0 0 0 0 0 0 0 0 127 0" result="hardAlpha"/>
<feOffset dx="4" dy="4"/>
<feGaussianBlur stdDeviation="2.55"/>
<feComposite in2="hardAlpha" operator="out"/>
<feColorMatrix type="matrix" values="0 0 0 0 0 0 0 0 0 0 0 0 0 0 0 0 0 0 0.25 0"/>
<feBlend mode="normal" in2="BackgroundImageFix" result="effect1_dropShadow_16_21"/>
<feBlend mode="normal" in="SourceGraphic" in2="effect1_dropShadow_16_21" result="shape"/>
</filter>
</defs>
</svg>
