<svg width="160" height="138" viewBox="0 0 160 138" fill="none" xmlns="http://www.w3.org/2000/svg">
<g filter="url(#filter0_d_16_14)">
<path d="M50.5783 38.0935C48.9139 28.7817 56.8401 15.9156 53.7092 2C53.7092 2 50.0068 10.5807 45.0995 14.611C36.0982 22.0036 25.0707 22.0089 16.9212 32.8752C1.26664 53.7486 7.91967 66.7944 2.04925 79.8403C0.288125 83.754 46.2732 96.365 55.666 101.148C63.9523 105.369 65.5269 119.735 73.2773 125.066C81.4959 130.719 118.939 127.291 131.2 122.457C143.332 117.673 150.376 107.671 149.984 105.497C149.593 103.323 141.766 99.8439 137.069 91.1467C133.605 84.7312 127.001 79.5027 120.241 75.0568C96.7586 59.6145 90.1596 62.2319 82.67 60.2715C69.7736 56.8959 52.1551 46.9152 50.5783 38.0935Z" fill="#F2EDEA"/>
</g>
<defs>
<filter id="filter0_d_16_14" x="0.9" y="0.9" width="158.2" height="136.2" filterUnits="userSpaceOnUse" color-interpolation-filters="sRGB">
<feFlood flood-opacity="0" result="BackgroundImageFix"/>
<feColorMatrix in="SourceAlpha" type="matrix" values="0 0 0 0 0 0 0 0 0 0 0 0 0 0 0 0 0 0 127 0" result="hardAlpha"/>
<feOffset dx="4" dy="4"/>
<feGaussianBlur stdDeviation="2.55"/>
<feComposite in2="hardAlpha" operator="out"/>
<feColorMatrix type="matrix" values="0 0 0 0 0 0 0 0 0 0 0 0 0 0 0 0 0 0 0.25 0"/>
<feBlend mode="normal" in2="BackgroundImageFix" result="effect1_dropShadow_16_14"/>
<feBlend mode="normal" in="SourceGraphic" in2="effect1_dropShadow_16_14" result="shape"/>
</filter>
</defs>
</svg>
