<svg width="157" height="52" viewBox="0 0 157 52" fill="none" xmlns="http://www.w3.org/2000/svg">
<g filter="url(#filter0_d_16_17)">
<path d="M116.891 5.56447C129.417 3.61036 147 2.01106 147 2.01106C147 1.56682 144.024 14.5245 139.077 21.113C132.738 29.5535 119.268 37.1055 116.891 40.6593C114.979 43.5171 113.105 41.1216 110.156 39.7708C101.557 35.8327 95.396 39.1871 86.3852 36.6611C73.7076 33.1072 68.9536 27.7764 56.276 27.3321C49.9357 27.11 37.6138 30.0025 29.7322 30.886C19.8687 31.9918 6.74774 31.3303 6.74774 29.5533C6.74774 22.4455 2 22.5289 2 20.6973C2 18.8657 7.15027 15.3665 12.6967 15.8107C18.2432 16.2549 23.7025 14.9332 30.921 12.228C39.5336 9.00031 44.8208 6.69977 53.8991 6.45295C64.6617 6.16033 70.074 9.85234 80.839 10.0069C95.0599 10.211 102.804 7.76194 116.891 5.56447Z" fill="#F2EDEA"/>
</g>
<defs>
<filter id="filter0_d_16_17" x="0.9" y="0.899878" width="155.2" height="50.2001" filterUnits="userSpaceOnUse" color-interpolation-filters="sRGB">
<feFlood flood-opacity="0" result="BackgroundImageFix"/>
<feColorMatrix in="SourceAlpha" type="matrix" values="0 0 0 0 0 0 0 0 0 0 0 0 0 0 0 0 0 0 127 0" result="hardAlpha"/>
<feOffset dx="4" dy="4"/>
<feGaussianBlur stdDeviation="2.55"/>
<feComposite in2="hardAlpha" operator="out"/>
<feColorMatrix type="matrix" values="0 0 0 0 0 0 0 0 0 0 0 0 0 0 0 0 0 0 0.25 0"/>
<feBlend mode="normal" in2="BackgroundImageFix" result="effect1_dropShadow_16_17"/>
<feBlend mode="normal" in="SourceGraphic" in2="effect1_dropShadow_16_17" result="shape"/>
</filter>
</defs>
</svg>
