<svg width="268" height="124" viewBox="0 0 268 124" fill="none" xmlns="http://www.w3.org/2000/svg">
<g filter="url(#filter0_d_16_35)">
<path d="M205.969 57.2515C223.147 59.2432 237.229 58.1366 247.412 58.1366C252.142 58.1366 258.706 64.469 257.938 72.7407C257.538 77.0479 253.249 82.9193 251.686 84.6895C249.342 87.3448 238.561 95.856 228.241 99.2936C214.956 103.719 212.611 102.834 211.83 108.145C211.604 109.679 210.658 114.783 209.095 113.898C207.532 113.013 192.761 106.887 186.822 105.489C156.734 98.4085 138.076 100.837 109.063 89.5575C92.2527 83.0225 83.1828 75.4289 67.6434 65.6599C56.6526 58.7505 49.2558 56.7042 37.5558 51.4984C26.6149 46.6304 -5.39176 28.526 3.56061 30.6986C14.5016 33.3539 26.224 29.8135 42.6354 21.4051C55.0905 15.0237 65.6897 7.24357 69.5972 5.47331C73.6046 3.6578 85.4734 0.101167 88.7439 3.26063C102.029 16.0946 130.36 31.7637 162.986 45.7452C177.444 51.9409 190.653 55.4756 205.969 57.2515Z" fill="#F2EDEA"/>
</g>
<defs>
<filter id="filter0_d_16_35" x="0.9" y="0.9" width="266.2" height="122.2" filterUnits="userSpaceOnUse" color-interpolation-filters="sRGB">
<feFlood flood-opacity="0" result="BackgroundImageFix"/>
<feColorMatrix in="SourceAlpha" type="matrix" values="0 0 0 0 0 0 0 0 0 0 0 0 0 0 0 0 0 0 127 0" result="hardAlpha"/>
<feOffset dx="4" dy="4"/>
<feGaussianBlur stdDeviation="2.55"/>
<feComposite in2="hardAlpha" operator="out"/>
<feColorMatrix type="matrix" values="0 0 0 0 0 0 0 0 0 0 0 0 0 0 0 0 0 0 0.25 0"/>
<feBlend mode="normal" in2="BackgroundImageFix" result="effect1_dropShadow_16_35"/>
<feBlend mode="normal" in="SourceGraphic" in2="effect1_dropShadow_16_35" result="shape"/>
</filter>
</defs>
</svg>
