<svg width="231" height="115" viewBox="0 0 231 115" fill="none" xmlns="http://www.w3.org/2000/svg">
<g filter="url(#filter0_d_16_15)">
<path d="M146.937 44.39C159.114 39.5822 168.778 27.3441 169.563 25.5957C170.349 23.8474 197.296 46.8689 216.544 49.0543C218.07 49.2275 220.235 49.0543 220.628 49.4913C221.506 50.4685 220.603 52.7019 220.235 52.5509C212.772 49.4913 206.094 49.9284 203.344 49.9284C194.293 49.9284 192.346 50.3655 186.847 51.2396C180.955 52.1762 172.706 53.8621 164.457 59.107C155.532 64.7815 152.891 71.6083 143.638 76.59C131.461 83.1461 124.676 82.4825 118.499 86.2057C113.536 89.1972 110.58 94.7494 105.537 97.5696C100.493 100.39 98.4661 99.755 97.2877 102.377C96.4092 104.333 97.2877 105 95.7166 105C94.1456 105 89.2323 105.02 85.111 104.563C75.9397 103.546 72.1485 102.814 65.4709 98.4437C58.7932 94.073 55.9266 88.1457 41.9027 81.3978C27.3691 74.4046 5.37212 77.9012 4.97931 66.5373C4.63028 56.4394 17.7474 57.7893 18.7274 47.743C19.9441 35.271 6.01279 23.9797 2.62231 20.2073C0.265361 17.5848 5.03543 17.0486 9.69278 8.84328C14.4064 0.538922 12.4425 1.41281 15.9776 3.16108C19.5128 4.90935 50.1514 18.0219 65.4707 23.2668C74.2149 26.2606 76.0764 42.4981 84.718 46.8689C93.367 51.2434 134.631 49.2486 146.937 44.39Z" fill="#F2EDEA"/>
</g>
<defs>
<filter id="filter0_d_16_15" x="0.9" y="0.9" width="229.2" height="113.2" filterUnits="userSpaceOnUse" color-interpolation-filters="sRGB">
<feFlood flood-opacity="0" result="BackgroundImageFix"/>
<feColorMatrix in="SourceAlpha" type="matrix" values="0 0 0 0 0 0 0 0 0 0 0 0 0 0 0 0 0 0 127 0" result="hardAlpha"/>
<feOffset dx="4" dy="4"/>
<feGaussianBlur stdDeviation="2.55"/>
<feComposite in2="hardAlpha" operator="out"/>
<feColorMatrix type="matrix" values="0 0 0 0 0 0 0 0 0 0 0 0 0 0 0 0 0 0 0.25 0"/>
<feBlend mode="normal" in2="BackgroundImageFix" result="effect1_dropShadow_16_15"/>
<feBlend mode="normal" in="SourceGraphic" in2="effect1_dropShadow_16_15" result="shape"/>
</filter>
</defs>
</svg>
