<svg width="1017" height="524" viewBox="0 0 1017 524" fill="none" xmlns="http://www.w3.org/2000/svg">
<path d="M100.066 170.908C52.3473 185.043 70.4433 214.192 57.5086 236.951C49.3449 251.314 5.47774 245.984 0.6002 277.834C-4.54859 311.455 24.4894 324.016 47.1162 342.619C80.9278 370.419 105.008 350.167 118.871 361.489C132.734 372.81 93.4875 425.1 113.427 447.03C127.707 462.735 142.529 460.575 163.906 455.836C185.283 451.096 201.54 422.885 224.278 419.355C230.799 418.342 234.711 417.414 241.1 419.355C277.317 430.356 284.25 529.442 340.566 523.765C356.809 522.128 362.183 499.61 382.134 499.235C391.988 499.05 412.196 515.16 451.42 515.59C492.919 516.044 483.803 492.971 538.514 488.544C593.226 484.116 667.671 513.074 686.971 507.413C706.27 501.752 715.266 496.602 725.069 482.253C734.872 467.903 735.439 462.27 745.363 454.579C763.036 440.883 772.496 460.447 798.307 451.433C824.119 442.419 836.581 427.436 863.134 423.129C891.823 418.475 914.941 455.906 936.867 431.934C950.269 417.282 949.524 403.426 946.269 379.729C944.597 367.551 944.79 356.458 955.177 350.167C965.564 343.876 1010.06 352.677 1016.04 321.863C1022.03 291.048 999.224 236.323 967.548 214.307C935.873 192.292 899.263 253.934 835.422 247.643C771.58 241.352 845.541 26.9161 744.863 1.08323C711.492 -7.47934 695.677 37.6316 661.727 34.4191C636.914 32.0713 625.179 -4.25241 601.85 6.74405C584.24 15.0445 585.442 38.5408 570.674 53.2886C559.176 64.7705 548.4 63.4786 538.014 76.5608C523.252 95.1545 531.378 119.481 517.23 138.83L516.815 139.397C508.651 150.565 503.195 158.029 491.497 162.102C456.254 174.374 416.285 84.7375 389.557 95.4302C362.829 106.123 360.267 138.588 357.886 153.296C355.506 168.005 348.009 193.35 331.659 206.131C313.697 220.172 298.547 205.084 277.72 209.275C251.154 214.621 238.798 235.51 211.904 235.064C166.966 234.318 147.785 156.772 100.066 170.908Z" fill="white"/>
</svg>
