<svg width="1029" height="536" viewBox="0 0 1029 536" fill="none" xmlns="http://www.w3.org/2000/svg">
<g filter="url(#filter0_d_16_8)">
<path d="M102.066 172.908C54.3473 187.043 72.4433 216.192 59.5086 238.951C51.3449 253.314 7.47774 247.984 2.6002 279.834C-2.54859 313.455 26.4894 326.016 49.1162 344.619C82.9278 372.419 107.008 352.167 120.871 363.489C134.734 374.81 95.4875 427.1 115.427 449.03C129.707 464.735 144.529 462.575 165.906 457.836C187.283 453.096 203.54 424.885 226.278 421.355C232.799 420.342 236.711 419.414 243.1 421.355C279.317 432.356 286.25 531.442 342.566 525.765C358.809 524.128 364.183 501.61 384.134 501.235C393.988 501.05 414.196 517.16 453.42 517.59C494.919 518.044 485.803 494.971 540.514 490.544C595.226 486.116 669.671 515.074 688.971 509.413C708.27 503.752 717.266 498.602 727.069 484.253C736.872 469.903 737.439 464.27 747.363 456.579C765.036 442.883 774.496 462.447 800.307 453.433C826.119 444.419 838.581 429.436 865.134 425.129C893.823 420.475 916.941 457.906 938.867 433.934C952.269 419.282 951.524 405.426 948.269 381.729C946.597 369.551 946.79 358.458 957.177 352.167C967.564 345.876 1012.06 354.677 1018.04 323.863C1024.03 293.048 1001.22 238.323 969.548 216.307C937.873 194.292 901.263 255.934 837.422 249.643C773.58 243.352 847.541 28.9161 746.863 3.08323C713.492 -5.47934 697.677 39.6316 663.727 36.4191C638.914 34.0713 627.179 -2.25241 603.85 8.74405C586.24 17.0445 587.442 40.5408 572.674 55.2886C561.176 66.7705 550.4 65.4786 540.014 78.5608C525.252 97.1545 533.378 121.481 519.23 140.83L518.815 141.397C510.651 152.565 505.195 160.029 493.497 164.102C458.254 176.374 418.285 86.7375 391.557 97.4302C364.829 108.123 362.267 140.588 359.886 155.296C357.506 170.005 350.009 195.35 333.659 208.131C315.697 222.172 300.547 207.084 279.72 211.275C253.154 216.621 240.798 237.51 213.904 237.064C168.966 236.318 149.785 158.772 102.066 172.908Z" fill="white"/>
</g>
<defs>
<filter id="filter0_d_16_8" x="0.9" y="0.9" width="1027.2" height="534.2" filterUnits="userSpaceOnUse" color-interpolation-filters="sRGB">
<feFlood flood-opacity="0" result="BackgroundImageFix"/>
<feColorMatrix in="SourceAlpha" type="matrix" values="0 0 0 0 0 0 0 0 0 0 0 0 0 0 0 0 0 0 127 0" result="hardAlpha"/>
<feOffset dx="4" dy="4"/>
<feGaussianBlur stdDeviation="2.55"/>
<feComposite in2="hardAlpha" operator="out"/>
<feColorMatrix type="matrix" values="0 0 0 0 0 0 0 0 0 0 0 0 0 0 0 0 0 0 0.25 0"/>
<feBlend mode="normal" in2="BackgroundImageFix" result="effect1_dropShadow_16_8"/>
<feBlend mode="normal" in="SourceGraphic" in2="effect1_dropShadow_16_8" result="shape"/>
</filter>
</defs>
</svg>
