<svg width="166" height="87" viewBox="0 0 166 87" fill="none" xmlns="http://www.w3.org/2000/svg">
<g filter="url(#filter0_d_16_19)">
<path d="M63.0384 39.1327C31.3035 36.9311 36.005 6.10871 14.8485 5.22807C12.1078 5.11399 7.40451 4.78775 7.01272 9.19095C6.50592 14.8867 11.7142 17.1167 12.4978 28.565C12.4978 28.565 11.8006 41.2895 10.5389 48.3794C8.18808 61.589 0.352247 62.4697 2.31127 66.8729C4.2703 71.2761 12.5044 67.431 18.3746 68.6339C25.3912 70.0718 28.5611 77 34.8297 77C50.3616 77 61.2375 61.6168 76.7508 62.4695C90.9984 63.2525 87.7211 69.9551 96.732 74.7987C106.116 79.8431 136.695 73.4777 139.829 60.7084C141.117 55.458 136.891 48.9595 139.045 39.1327C141.535 27.7767 157.456 28.6795 155.892 17.1167C154.954 10.1798 153.15 6.10865 147.665 3.02644C142.18 -0.0557714 139.871 4.78557 135.519 4.78783C130.358 4.7905 127.206 1.61951 122.198 3.02647C119.064 3.90715 117.105 5.66839 117.105 5.66839C112.012 10.9522 108.454 17.552 104.176 23.7215C93.7352 38.7792 78.6851 40.2182 63.0384 39.1327Z" fill="#F2EDEA"/>
</g>
<defs>
<filter id="filter0_d_16_19" x="0.9" y="0.9" width="164.2" height="85.2" filterUnits="userSpaceOnUse" color-interpolation-filters="sRGB">
<feFlood flood-opacity="0" result="BackgroundImageFix"/>
<feColorMatrix in="SourceAlpha" type="matrix" values="0 0 0 0 0 0 0 0 0 0 0 0 0 0 0 0 0 0 127 0" result="hardAlpha"/>
<feOffset dx="4" dy="4"/>
<feGaussianBlur stdDeviation="2.55"/>
<feComposite in2="hardAlpha" operator="out"/>
<feColorMatrix type="matrix" values="0 0 0 0 0 0 0 0 0 0 0 0 0 0 0 0 0 0 0.25 0"/>
<feBlend mode="normal" in2="BackgroundImageFix" result="effect1_dropShadow_16_19"/>
<feBlend mode="normal" in="SourceGraphic" in2="effect1_dropShadow_16_19" result="shape"/>
</filter>
</defs>
</svg>
