<svg width="131" height="131" viewBox="0 0 131 131" fill="none" xmlns="http://www.w3.org/2000/svg">
<g filter="url(#filter0_d_16_25)">
<path d="M92.5619 33.5146C32.3949 26.9861 10.3728 -2.60788 6.04703 2.61456C1.99448 7.50716 12.7323 9.57796 16.2715 15.6709C19.8108 21.7639 20.9198 31.4951 18.2378 37.4315C14.6985 45.2654 6.44041 45.2654 3.29429 51.3583C0.373877 57.0142 2.53019 68.392 8.40653 68.7668C14.2829 69.1417 18.8235 71.8427 23.7433 76.6006C30.157 82.8033 31.215 89.657 33.9678 98.3613C36.4722 106.28 36.2264 111.858 36.3273 113.158C37.0796 122.867 48.3752 121.475 55.5624 119.82C59.9222 118.816 59.9222 118.381 64.248 114.899C74.4241 106.709 92.5896 111.048 99.2472 99.2317C102.44 93.5647 101.265 89.536 103.966 83.564C108.637 73.2382 122.449 70.9429 120.876 64.4147C119.578 59.0297 113.209 62.4736 102.393 49.6175C91.7754 36.9963 96.4944 33.9413 92.5619 33.5146Z" fill="#F2EDEA"/>
</g>
<defs>
<filter id="filter0_d_16_25" x="0.9" y="0.9" width="129.2" height="129.2" filterUnits="userSpaceOnUse" color-interpolation-filters="sRGB">
<feFlood flood-opacity="0" result="BackgroundImageFix"/>
<feColorMatrix in="SourceAlpha" type="matrix" values="0 0 0 0 0 0 0 0 0 0 0 0 0 0 0 0 0 0 127 0" result="hardAlpha"/>
<feOffset dx="4" dy="4"/>
<feGaussianBlur stdDeviation="2.55"/>
<feComposite in2="hardAlpha" operator="out"/>
<feColorMatrix type="matrix" values="0 0 0 0 0 0 0 0 0 0 0 0 0 0 0 0 0 0 0.25 0"/>
<feBlend mode="normal" in2="BackgroundImageFix" result="effect1_dropShadow_16_25"/>
<feBlend mode="normal" in="SourceGraphic" in2="effect1_dropShadow_16_25" result="shape"/>
</filter>
</defs>
</svg>
